Coordinates
version=1
nRows=11
nColumns=63
inDegrees=yes

Units are S.I. units (second, meters, Newtons, ...)
If the header above contains a line with 'inDegrees', this indicates whether rotational values are in degrees (yes) or radians (no).

endheader
time	pelvis_tilt	pelvis_list	pelvis_rotation	pelvis_tx	pelvis_ty	pelvis_tz	hip_flexion_r	hip_adduction_r	hip_rotation_r	knee_angle_r	knee_angle_r_beta	ankle_angle_r	subtalar_angle_r	mtp_angle_r	hip_flexion_l	hip_adduction_l	hip_rotation_l	knee_angle_l	knee_angle_l_beta	ankle_angle_l	subtalar_angle_l	mtp_angle_l	L5_S1_Flex_Ext	L5_S1_Lat_Bending	L5_S1_axial_rotation	L4_L5_Flex_Ext	L4_L5_Lat_Bending	L4_L5_axial_rotation	L3_L4_Flex_Ext	L3_L4_Lat_Bending	L3_L4_axial_rotation	L2_L3_Flex_Ext	L2_L3_Lat_Bending	L2_L3_axial_rotation	L1_L2_Flex_Ext	L1_L2_Lat_Bending	L1_L2_axial_rotation	L1_T12_Flex_Ext	L1_T12_Lat_Bending	L1_T12_axial_rotation	Abs_r3	Abs_r2	Abs_r1	Abs_t1	Abs_t2	neck_flexion	neck_bending	neck_rotation	arm_flex_r	arm_add_r	arm_rot_r	elbow_flex_r	pro_sup_r	wrist_flex_r	wrist_dev_r	arm_flex_l	arm_add_l	arm_rot_l	elbow_flex_l	pro_sup_l	wrist_flex_l	wrist_dev_l
      0.00000000	      6.18624193	     -6.35382374	     88.56870746	      0.32553632	      1.07244970	      0.30714100	     -3.94305008	      1.23006216	     -3.68949068	      3.05895630	      0.05338886	     32.15626104	      9.00647848	      0.00000000	     -4.74066843	     -1.66923643	      8.56170741	      1.22095158	      0.02130963	     27.18612613	    -13.06701861	      0.00000000	      0.10699160	      0.46692781	      0.11967118	      0.19869409	      0.62101399	      0.12715063	      0.17577649	      1.13528828	      0.12715063	      0.12228070	      1.13528828	      0.10471228	      0.09935240	      0.95215919	      0.09723283	      0.06113500	      0.72327118	      0.08975338	      0.76423028	      5.28198077	      0.66557519	      0.00000000	      0.00000000	     28.13185458	      0.45269939	     -3.58273127	     14.73806012	     -8.36025757	     79.46448471	     43.76151371	     16.45046614	     -5.15454665	     -1.57403964	     12.07393081	    -10.40318480	     59.81010855	     38.31187430	     81.50782986	      5.95912716	     -9.25121726
      0.01754386	      5.74904333	     -6.80553551	     88.04340648	      0.32599077	      1.07141248	      0.31139639	     -3.19197847	      0.67236063	     -5.00052523	      3.89684520	      0.06801278	     31.99834099	     10.56591215	      0.00000000	     -4.04030185	     -1.11996872	     10.21487002	      1.48916395	      0.02599081	     25.98391843	    -15.67296922	      0.00000000	      0.13159157	      0.42854087	     -0.04238230	      0.24437871	      0.56995936	     -0.04503119	      0.21619179	      1.04195427	     -0.04503119	      0.15039601	      1.04195427	     -0.03708451	      0.12219593	      0.87388054	     -0.03443562	      0.07519142	      0.66380981	     -0.03178672	      0.93994544	      4.84774004	     -0.23571763	      0.00000000	      0.00000000	     28.19312396	      1.79712941	     -1.78952178	     15.51578780	     -7.63429899	     82.14542577	     42.86067590	     13.89680948	     -3.62827844	     -2.81951007	     11.61322753	    -10.91148656	     60.77192195	     38.27192302	     72.02663412	      8.29324109	     -7.74250691
      0.03508772	      5.35929742	     -7.16884332	     87.60931024	      0.32634148	      1.07070395	      0.31489367	     -2.54324033	      0.17025907	     -6.04931140	      4.50186421	      0.07857235	     32.07522304	     12.11179458	      0.00000000	     -3.38287798	     -0.65488085	     10.37292162	      1.81463558	      0.03167137	     25.50411724	    -16.26688416	      0.00000000	      0.14873716	      0.39027063	     -0.11487881	      0.27621977	      0.51905994	     -0.12205874	      0.24436028	      0.94890402	     -0.12205874	      0.16999170	      0.94890402	     -0.10051896	      0.13811732	      0.79583987	     -0.09333904	      0.08498841	      0.60452921	     -0.08615911	      1.06241464	      4.41481946	     -0.63892150	      0.00000000	      0.00000000	     28.23043050	      2.57613130	     -0.86470297	     15.80511497	     -7.10425955	     83.13080508	     42.19110621	     12.89436170	     -2.62100311	     -3.08560384	     11.74993534	    -11.32258873	     63.21500391	     38.17822364	     63.73802398	      8.39132885	     -7.88823592
      0.05263158	      5.00526189	     -7.56112485	     87.34016627	      0.32652194	      1.07008467	      0.31758500	     -1.90489210	     -0.22659037	     -5.99476598	      4.88135729	      0.08519576	     32.21067910	     12.31094857	      0.00000000	     -2.68350552	     -0.25455814	     10.24950654	      2.11066494	      0.03683805	     25.25630831	    -16.51334394	      0.00000000	      0.17675040	      0.35167753	     -0.15597508	      0.32824316	      0.46773111	     -0.16572353	      0.29038323	      0.85506874	     -0.16572353	      0.20200803	      0.85506874	     -0.13647820	      0.16413042	      0.71714081	     -0.12672976	      0.10099518	      0.54474849	     -0.11698131	      1.26251042	      3.97824651	     -0.86748662	      0.00000000	      0.00000000	     28.25944645	      2.90063593	     -0.56851372	     15.78274109	     -6.73220105	     83.05948753	     41.80113423	     12.94099022	     -2.38394935	     -2.80410817	     11.34941767	    -11.37738182	     62.69406198	     38.07772679	     62.55246502	      8.16914628	     -8.42396698
      0.07017544	      4.97271474	     -7.63367078	     87.30968719	      0.32645934	      1.06988755	      0.31951750	     -1.76627310	     -0.25537027	     -5.87961650	      4.86229546	      0.08486306	     32.29711572	     12.41719133	      0.00000000	     -2.47438970	     -0.22313014	     10.23840979	      2.09898710	      0.03663424	     25.20699218	    -16.52202633	      0.00000000	      0.15804390	      0.34636266	     -0.17872998	      0.29350333	      0.46066234	     -0.18990060	      0.25965032	      0.84214617	     -0.18990060	      0.18062837	      0.84214617	     -0.15638873	      0.14675956	      0.70630273	     -0.14521811	      0.09030628	      0.53651576	     -0.13404748	      1.12889177	      3.91812366	     -0.99404251	      0.00000000	      0.00000000	     28.29271373	      2.89995227	     -0.56216537	     15.87470842	     -6.71287640	     82.99057576	     41.78174945	     12.94966870	     -2.36084650	     -2.77146060	     11.41476617	    -11.36491413	     62.62319096	     38.06082110	     62.43847681	      8.09529565	     -8.49533930
      0.08771930	      4.54714820	     -8.00269853	     87.02832678	      0.32673115	      1.06949356	      0.32108364	     -1.04320125	     -0.75859028	     -6.30886888	      5.28072552	      0.09216605	     32.98559206	     13.60268606	      0.00000000	     -1.81740359	      0.23598711	      9.57930727	      2.37507559	      0.04145289	     25.17498786	    -16.39750587	      0.00000000	      0.19553925	      0.29848327	     -0.18466887	      0.36313594	      0.39698275	     -0.19621068	      0.32125143	      0.72573222	     -0.19621068	      0.22348181	      0.72573222	     -0.16158526	      0.18157775	      0.60866708	     -0.15004346	      0.11173113	      0.46235058	     -0.13850165	      1.39671729	      3.37650242	     -1.02707286	      0.00000000	      0.00000000	     28.28302861	      3.01713362	     -0.31902089	     15.56399169	     -6.36564174	     81.43165949	     41.38046355	     14.38279262	     -1.89341993	     -0.60035707	     11.25352757	    -11.60410742	     63.63643856	     38.26717045	     59.26582901	      5.45155843	    -10.88531194
      0.10526316	      4.38482335	     -8.13091485	     87.36621908	      0.32619079	      1.06933417	      0.32202946	     -0.82846649	     -0.95327438	     -7.17813486	      5.31514447	      0.09276677	     33.45923384	     14.67092818	      0.00000000	     -1.53081524	      0.39953808	      9.87298019	      2.38130704	      0.04156165	     25.07264687	    -16.53660334	      0.00000000	      0.20274907	      0.27753636	     -0.18644792	      0.37652530	      0.36912336	     -0.19810092	      0.33309645	      0.67480192	     -0.19810092	      0.23172191	      0.67480192	     -0.16314193	      0.18827279	      0.56595215	     -0.15148894	      0.11585082	      0.42990383	     -0.13983594	      1.44821635	      3.13954686	     -1.03696740	      0.00000000	      0.00000000	     28.28968494	      2.57865107	     -0.82487395	     14.79669776	     -6.48484541	     78.41489229	     41.60467513	     15.98289034	     -2.02699128	      1.37613337	     12.16377595	    -11.76178126	     67.24713453	     38.42915703	     54.14568134	      3.46446013	    -12.01410558
      0.12280702	      4.24006837	     -8.20411357	     87.61195759	      0.32580842	      1.06923430	      0.32246105	     -0.65847922	     -1.11043483	     -7.46717858	      5.41614425	      0.09452955	     33.71480558	     14.87472839	      0.00000000	     -1.34804471	      0.54958908	      9.94796259	      2.39643488	      0.04182568	     25.11907992	    -16.45758760	      0.00000000	      0.20989329	      0.25960786	     -0.21624592	      0.38979283	      0.34527846	     -0.22976129	      0.34483368	      0.63121055	     -0.22976129	      0.23988704	      0.63121055	     -0.18921518	      0.19490691	      0.52939235	     -0.17569981	      0.11993303	      0.40213258	     -0.16218444	      1.49924677	      2.93673605	     -1.20269494	      0.00000000	      0.00000000	     28.29549777	      2.40560455	     -0.96499078	     14.35518978	     -6.53403983	     76.42062630	     41.82866147	     15.60275635	     -1.90739541	      3.05285464	     12.29869512	    -11.75286640	     68.16679605	     38.37798785	     52.28091258	      3.00409896	    -12.69019547
      0.14035088	      4.07393825	     -8.20596221	     87.68699097	      0.32555823	      1.06918857	      0.32254300	     -0.56891472	     -1.30981360	     -7.81932455	      5.54305687	      0.09674459	     34.00539977	     15.26226925	      0.00000000	     -1.30410521	      0.74450937	      9.91581157	      2.39456819	      0.04179310	     25.16996603	    -16.35044274	      0.00000000	      0.21254395	      0.24375199	     -0.24471903	      0.39471538	      0.32419014	     -0.26001397	      0.34918846	      0.59265858	     -0.26001397	      0.24291648	      0.59265858	     -0.21412915	      0.19736832	      0.49705905	     -0.19883421	      0.12144761	      0.37757183	     -0.18353927	      1.51818020	      2.75737121	     -1.36105381	      0.00000000	      0.00000000	     28.29970758	      2.50846114	     -0.55573450	     14.18383425	     -6.57635414	     75.16852545	     42.05128974	     14.16535929	     -1.69150297	      4.60319438	     12.16069954	    -11.77016515	     68.22601273	     38.42425476	     50.81485676	      3.32001604	    -12.51985159
      0.15789474	      3.98656929	     -8.12723352	     88.00284606	      0.32495290	      1.06920500	      0.32241949	     -0.59580264	     -1.42786279	     -8.31757851	      5.72091155	      0.09984874	     34.28955024	     15.43102494	      0.00000000	     -1.35724368	      0.85224954	     10.17441604	      2.39630220	      0.04182336	     25.22959934	    -16.20496045	      0.00000000	      0.20859642	      0.23756371	     -0.27438521	      0.38738441	      0.31595974	     -0.29153428	      0.34270306	      0.57761242	     -0.29153428	      0.23840485	      0.57761242	     -0.24008705	      0.19370264	      0.48443993	     -0.22293798	      0.11919199	      0.36798619	     -0.20578890	      1.48998337	      2.68736826	     -1.52604820	      0.00000000	      0.00000000	     28.29932997	      2.36483011	     -0.42829046	     14.05771552	     -6.76220963	     74.15483214	     42.33452802	     13.02730584	     -1.57558702	      5.78333463	     12.42508784	    -11.68544891	     69.40195386	     38.22990694	     49.13828570	      3.82712227	    -12.63788132
      0.17543860	      3.91132897	     -7.99710821	     88.23318039	      0.32447170	      1.06927352	      0.32202691	     -0.70814710	     -1.52242322	     -8.63382097	      5.87247319	      0.10249399	     34.55776752	     15.39450000	      0.00000000	     -1.51436285	      0.94824627	     10.43002001	      2.36329034	      0.04124720	     25.28629179	    -16.08854166	      0.00000000	      0.20099110	      0.23683587	     -0.31541699	      0.37326057	      0.31499171	     -0.33513055	      0.33020828	      0.57584274	     -0.33513055	      0.22971273	      0.57584274	     -0.27598986	      0.18664034	      0.48295571	     -0.25627630	      0.11484632	      0.36685877	     -0.23656274	      1.43565934	      2.67913476	     -1.75425466	      0.00000000	      0.00000000	     28.28956571	      2.48377318	      0.26738885	     14.38279095	     -6.90945457	     74.62493100	     42.41171799	     11.41526177	     -1.26458346	      6.61599555	     12.46033204	    -11.66068047	     69.82073913	     38.24100815	     48.67240855	      4.05970420	    -12.39381630
